<?xml version="1.0" encoding="UTF-8"?>
<svg xmlns="http://www.w3.org/2000/svg" viewBox="0 0 2505.6 2849">
  <defs>
    <style>
      .cls-1 {
        fill: #000;
        stroke-width: 0px;
      }
    </style>
  </defs>
  <g id="Layer_1_Image" data-name="Layer 1 Image">
    <path class="cls-1" d="M409,554.38c-9.67-2.23-23.07-3.28-32.28,13.7-25.98.26-53.85-24.18-76.59-39.34-51.92-34.61-100.1-41.16-101.65-73.66-2.08-54.58-20.61-115.43-8.19-166.72,4.71-19.45-7.5-103.61,7.27-106.37,63.64-1.93,185.51-12.66,258.32-3.8,25.55,3.11,184.87-5.37,232.99,8.86,9.56,2.83,7.19,19.73,4.43,26.59-22.16,55.08,19.47,37.22-.09,54.05-24.1,20.74-27.53,60.21-48.11,75-38.37,29.52,52.54,9.9-44.23,74.36-16.28,11.96-46.07,17.61-51.36,38.56-1.29,15.45-21.63,7.9-27.79,18.85,19.37,27.65-15.55,30.58-33.88,44.51-27.98,30.57-57.72-22.89-67.09,23.93-.12,6.22-5.56,11.7-11.76,11.44Z"/>
  </g>
  <g id="Layer_2_Image" data-name="Layer 2 Image">
    <path class="cls-1" d="M507.27,691.18c-31.25-6.07-61.47-14.07-89.69,2.18-16.45,17.98-64.22,13.03-81.21-3.38-14.07-13.37,10.34-37.26-11.02-44.74-10.19-5.4-25.44,9.17-30.3-5.13,9.15-24.91,14.89-52.02,29.11-75.41,13.57-16.67,34.88,10.68,51.46,4.8,14.64-20.24,37.75-4.96,47.96-25.06,8.29-39.92,29.82-1.26,50.3-14.32,15.09-16.78,62-21.17,58.13-46.48-3.97-4.36-6.04-11.75,1.14-14.22,20.04-.53,17.61-20.09,31.39-28.4,25.61-10.37,45.73-30.34,70.83-41.03,6.15-.34,10.25,5.94,10.05,11.65,2.71,22.92,35.09,20.57,44.79,39.01,7.85,10.57,3.16,22.53-.98,33.72-5.35,22.28,25.35,22.64,31.15,42.71,7.93,27.44,18.98,33.8,36.74,43.13-.26,3.35,2.72,5.92.82,9.21-10.85,18.78-47.62,36.76-44.69,44.19,40.16,101.6-61.53,38.08-108.21,22.97-40.78-13.19-61.96,74.43-97.77,44.58Z"/>
  </g>
  <g id="Layer_3_Image" data-name="Layer 3 Image">
    <path class="cls-1" d="M701.54,262.41c-32.92-37.99,14.28-23.06-7.6-68.38-18.36-38.03,261.69-12.78,311.5-15.2,25.32,7.85-8.25,68.56,5.7,93.07-1.37,26.23-27.39,45.43-41.15,62.05-9.6,11.6-18.03,25.41,2.53,48.75,13.24,15.03,31.9,23,24.48,59.05-5.82,28.28-45.38-21.07-75.2,8.11-21.87,21.4-9.48,71.83-10.03,91.88-.06,2.16-14.49-5.89-17.08-5.2-32.71,8.78-16.56,20.35-36.01,40.28-22.27,22.82-49.97,19.53-69.8-.74-1.73-1.77-19.21,5.07-25.8,0-3.27-2.52-5.56-6.59-9.48-9.09-5.56-3.54-14.86-3.99-22.64-14.3-5.45-7.23-6.91-20.21-12.62-31.74-4.99-10.09-14.96-12.83-25.25-21.9-16.26-14.35,15.53-50.64-15-61.33-13.43-6.16-38.96-15.88-27.68-34.37,1.39-5.55-12.81-4.38-14.57-8.69-1.38-3.39,8.94-12.24,13.26-16.33,9.97-11.55-16.52-16.52-8.45-27.98,34.72-24.9,21.59-66.97,60.87-87.93Z"/>
  </g>
  <g id="Layer_4_Image" data-name="Layer 4 Image">
    <path class="cls-1" d="M1025.07,277.61c-13.3-21.53.15-91.96,11.4-98.17,21.53-11.88,211.33,5.9,242.49,6.37,12.58.19-35.27,61.02-28.95,69.01,50,63.2,52.09,72.73-16.51,132.96-22.34,19.61,22.13,77.13-17.72,83.38-53.92-17.81-114.88,19.07-169.2-.62-15.23-5.37-50.95-8.83-49.57-28.77,19.6-36.45-13.93-69.33-16.91-105.35,11.1-24.27,29.78-8.49,44.98-58.8Z"/>
  </g>
  <g id="Layer_5_Image" data-name="Layer 5 Image">
    <path class="cls-1" d="M1259.44,482.72c-49.18,2.02-7.61-33.08-25.94-71.52,17.73-54.55,115.69-58.43,35.33-152.58-10.59-12.41-8.93-16.69,31.66-67.74,16.29-20.49,80.32-11.76,99.4-11.43,16.49.28,112.25-21.14,103.83,3.2-23.43,67.74,12.03,86.85,12.03,86.85,20.73,7.42-3.29,32.78-11.68,42.93-58.6,70.92,63.6,50.03,28.97,119.15-25.74,51.38-47.68,11.11-81.15,39.56-111.16,94.49-74.68,11.32-192.44,11.59Z"/>
  </g>
  <g id="Layer_6_Image" data-name="Layer 6 Image">
    <path class="cls-1" d="M1510.6,179.44c62.27,10.05,259.26-33.57,242.11,24.16-44.31,149.17,11.84,105.67,27.64,168.66,11.63,46.36,3.95,83.17-44.31,60-63.32-30.4-59.96,42.45-146.86,6.14-19.68-8.22-76.46,64.28-65.04,13.32,2.17-9.7,13.48-26.41,20.72-46.22,5-13.68-21.66-25.59-34.26-34.03-20.99-14.08-26.71-33.09-10.45-51.76,66.48-76.34-39.49-40.2,10.45-140.27Z"/>
  </g>
  <g id="Layer_7_Image" data-name="Layer 7 Image">
    <path class="cls-1" d="M1744.3,261.78c28.49-94.97-43.69-87.1,155.12-82.34,35.83.86,27.95,25.17,53.99,39.99,82.14,46.76-16.19,95.17,49.9,116.73,98.08,31.99,5.39,78.42,61.78,95.61,28.53,1.92,51.35,20.46,51.62,50.42-63.58,62.84-60.51,27.96-117.54-1.92-62.48-29.37-130.76-48.74-200.74-45.35-46.63.44-1.94-50.68-19.11-73.29-14.33-23.97-62.24-49.21-35.01-99.86Z"/>
  </g>
  <g id="Layer_8_Image" data-name="Layer 8 Image">
    <path class="cls-1" d="M2291.55,526.09c-45.56-.16-86.09-27.19-128.71-37.09-13.56-3.47-43.44,9.14-41.15-12.04,8.74-80.71-77.1-33.98-51.95-104.99,9.59-27.08-8.47-29.1-28.3-34.77-22.56-5.72-54.26-27.22-42.18-57.01,21.08-51.96-68.37-94.34-47.93-99.31,52.41,1.39,217.85-.81,270.36-.14,21.67,9.53,126.49-16.65,120.91,14.56-9.53,25.43-4.45,27.45-9.61,115.23-.78,13.34,19.88,42.64,0,75.09-9.79,15.98,12.2,46.45,3.98,70.53-9.08,26.59-8.94,32.69-7.56,59-3.07,17.36-29.14,5.36-37.85,10.94Z"/>
  </g>
  <g id="Layer_9_Image" data-name="Layer 9 Image">
    <path class="cls-1" d="M429.46,1180.08c-147.06-18.63-188.24,62.74-228.1,57.35-23.43-3.17-3.78-106.38-12.03-257.05,1.17-61.76,10.83-101.68,6.28-163.38-16.1-49.25-12.2-79.57-5.02-125.33,3.87-25.68-30.07-235.36,13.93-213.36,34.19,17.09,145.61,15.46,120.93,74.06-66.48,157.86-11.07,63.19,7.49,112.8-19.63,68.49,136.05,16.48,47.36,61.74-7.9,2.66-12.99,4.87-12.86,14.53-42.28,63.96,29.23,19.6,19.21,55.98-80.04,24,38.49,33.81-5.2,73.54-67.47,59.44,10.73,34.73-6.08,58.84-12.9,3.31-41.47-8.73-42.61,10.62,5.27,17.35,52.52,17.56,21.25,42.21-34.66,20.36-11.1,58.76,19.17,66.16,11.1-21.74,20.72-36.79,49.09-18.24,12.14,12.96,25.4-9.98,37.45,4.1,47.72,32.14,78.74-85.95,121.28-43.36,13.59,28.06,70.93,15.51,60.98,54.71-3.06,8.59-.24,12,8.39,13.83,39.67,30.75,38.43,67.48-12.97,83.9-54.14,49.17-140.07,27.04-207.94,36.35Z"/>
  </g>
  <g id="Layer_10_Image" data-name="Layer 10 Image">
    <path class="cls-1" d="M375.66,804.11c18.47,4.54,27.59-25.23,7.86-29.05-10.11-1.71-34.79-9.36-20-21.79,16.69-3.18,3.15-24.29,20.07-26.07,18.56-4.84,29.56-22.86,47.83-29.14,26.79,1.3,57.5-.84,81.21,15.07,14.21,9.53,41.63,5.04,43.09,28.02,10.67,36.75,24.49,76.64,15.14,116.17-.94,26.27-11.64,54.07-5.66,79.57,8.56,16.39-.15,41.06-21.29,45.25-15.7,3.11-15.96,32.11-38.57,32.76-9.27,23.15-27.96,23.92-38.12,17.79-7.66-4.62-13.51-14.39-22.05-8.86-25.23,21.27-33.41-20.6-65.52,2.63-2.36,38.23-46.38,4.53-40.37-19.1,2.34-16.88,19.28-23.56,25.44-37.34,2.25-14.09-13.41-18.77-24.52-20.6-23.16-24.96,26.47-17.76,39.89-19.48,25.18-18.47-40.03-11.45-21.17-33.25,14.19-9.29,20.29-23.48,30.74-35.94,10.98-8.96-6.27-34.36-17.88-35.09-18.02.98-12.62-24.54,3.89-21.54Z"/>
  </g>
  <g id="Layer_11_Image" data-name="Layer 11 Image">
    <path class="cls-1" d="M640.86,1020c-9.14-2.3-26.77-12.89-34.59-19.43-9.93.58-20.85-2.26-21.13-14.57-10.01-16.97-12.58-7-13.54-32.86-11.78-23.1-4.24-38.75-1.29-69.18,2.66-40.3,7.84-80.86-3.6-120.08-12.86-20.72-23.68-40.28-20.71-57.29,4.52-25.87,26.75-49,55.91-47.44,14.88.8,32.22,11.66,48.55,24.36,13.11,3.62,32.29,1.96,37.31,4.69,5.58,3.03-.43,4.42-2.01,9.85-2.4,8.2.95,23.6,3.92,38.39,8.99,44.84,84,50.86,72.07,103.05.6,11.5,12.68,25.43,17.2,35.66,1.35,19.95-11.67,50.24-21.18,71.15-10.62,23.36-18.89,36.87-39.24,48.63-27.8,12.82-52.5,8.93-77.65,25.06Z"/>
  </g>
  <g id="Layer_12_Image" data-name="Layer 12 Image">
    <path class="cls-1" d="M816.38,882.25c-61.78,5.16-36.14-56.15-60.69-84.9-22.74-17.11-52.59-31.27-63.25-59.23-9.26-29.19-8.9-42.97,1.02-49.69,9.05-6.13,26.84-5.63,36.76-20.85-2.45-36.35-8.54-56.84,31.74-75.33,28.29-14.74,54.44,18.27,84.46,4.83,16.34-4.58,18.25-26.69,26.36-41.58,5.85-10.74,12.75-20.65,28.59-16.89,8.22,1.95,15.91,6.3,9.11,20.61-2.29,4.83-.85,10.66,3.09,14.07,17.88,19.28,29.44,43.74,45.97,64.14,32.28,14.29,26.92,47.86,11.84,73.55-30.39,93.27-67.11,13.82-100.59,42.37-15.43,18.6-6.7,42.65-9.62,63.93-12.51,23.22-6.98,70.44-44.79,64.99Z"/>
  </g>
  <g id="Layer_13_Image" data-name="Layer 13 Image">
    <path class="cls-1" d="M945.36,442.68c44.54,6.02,82.26,34.45,128.23,36.98,22.21,5.98,57.26-13.84,72.81,3-25.03,56.1,22.3,95.26-14.78,158.1-3.37,29.73,15.64,54.41,13.16,85.03.83,12.56,21.23,27.73,3.26,36.3-16.98,6.42-34.11-13.44-50.61-4.2-41.61,20.44-79.06-26.35-97.65-58.19-13.18-50.25-50.94-80.25-77.82-123.98-8.53-36.95-31.39-123.08,23.39-133.04Z"/>
  </g>
  <g id="Layer_14_Image" data-name="Layer 14 Image">
    <path class="cls-1" d="M1145.43,709.57c-12.29-51.76-19.28-65.34,3.18-117.84,6.91-38.55-26.99-77.32,3.16-112.3,24.31-24.63,62.87,7.43,92.19,6.07,29.46-7.01,126.13,19.48,132.72,49.54-36.74,86.02,31.61,254.32-123.86,206.82-22.65-13.52-49.73,7.85-71.21,14.04-20.01,5.77-35.2-2.3-36.18-46.35Z"/>
  </g>
  <g id="Layer_15_Image" data-name="Layer 15 Image">
    <path class="cls-1" d="M1647.17,700.7c-50.01-7.72-56.48,47.21-87.96,72.08-52.69,35.58-43.69,8.5-61.53-32.2-53.22-22.46-39.32-16.42-77.66-54.44-15.37-15.47-38.45-3.25-52.38-14.07-4.43-52-7.79-115.61,29.77-157.45,38.51-31.34,80.54-65.44,133.13-49.53,37.97-10.71,39.8-36.57,85.91-11.5,89.36-7.32,18.68,2.69,73.22,61.84,37.73,37.52,8.44,82.86-1.43,123.22,40.16,43.97,2.76,61.74-41.08,62.06Z"/>
  </g>
  <g id="Layer_16_Image" data-name="Layer 16 Image">
    <path class="cls-1" d="M1926.39,560.33c24.96,46.49-13.55,75.68-22.72,117.64-1.17,30.05-6.51,47.07-20.18,46.4-23.2-1.13-62.43-38.83-88.2-45.75-24.25-21.29-57.03-1.32-82.72-16.81-56.76-34.23,29.71-83.52-10.98-132.81-10.27-17.89-28.29-32.59-29.59-54.32-20.01-65.95,39.66-43.43,79.27-37.77,42.31,5.78,88.38-5.64,128.85,6.38,106.13,30.22,78.07,2.64,46.26,117.05Z"/>
  </g>
  <g id="Layer_17_Image" data-name="Layer 17 Image">
    <path class="cls-1" d="M2018.51,782.5c-47.28-12.83-65.77,54.69-111.03,52.96-51.36-3.71-14.07-44.64-18.93-76-11.77-30.35,14.31-44.26,19.93-71.3-1.29-28.04,16.17-48.43,29.46-71.16,7.5-14.82-1.6-30.59-4.67-45.4-7.49-27.16,18.11-47.41,18.69-74.01,5.41-65.08,64.14,6.89,92.16,18.81,63.95,3,45.62,72.93,26.4,112.61-4.72,20.24,1.81,41.34-12.71,58.99,10.92,61.88,60.99,87.23-39.31,94.49Z"/>
  </g>
  <g id="Layer_18_Image" data-name="Layer 18 Image">
    <path class="cls-1" d="M2159.2,491.68c35.7,5.07,69.32,27.52,105.63,35.77,19.08,8.27,48.08-7.61,62.2,8.8,1.53,40.27,12.68,79.67,2.54,120.93,5.36,21.23,12.3,40.47-.23,61.73-.89,10.66,14.08,19.84,4.29,30.12-11.48,20.83-7.99,48.27-1.95,70.4-11.54,45.34-176.32-39.57-205.58-46.27-35.07,1.24-44.52-24.9-56.03-52.61-15.54-20.93-4.99-37.71,1.36-58.63-8.39-39.58,30.28-73.15,19.91-112.3-30.42-47.97,32.35-59.62,67.86-57.94ZM2148.99,492.84c.59-.09,1.1-.18,1.61-.26-1.07-.46-4.11-.27-1.61.26Z"/>
  </g>
  <g id="Layer_19_Image" data-name="Layer 19 Image">
    <path class="cls-1" d="M666.59,1008.88c72.97,2.68,55.71-32.2,97.79-63.07,22.6,3.21,51.32-16.27,72.7-1.72,8.14,3.78,16.82,7.87,25.97,7.1,18.61-3.41,25.39,16.41,41.06,20.22,12.24-1.05,23.04-8.87,38.3-12.93,9.12-2.43,20.65.82,30.03,1.53,11.4.86,19.85-11.2,27.1,9.14,14.43,40.46,54.08,68.01,51.24,111.39-2.29,49.25-69.91,38.27-80.57,85.25-11.96,16.57-36.23-5.55-52.4-4.06-63.4,5.85-70.6-35.11-85.98-29.36-43.09,16.11-90.35,12.05-134.66-.47-25.08-7.08-22.1-25.85-15.56-42.88-12.71-7.84-18.29-21.69-36.15-37.75-6.74-6.06-.46-22.93,5.62-32.79,2.77-4.5,7.69-7.93,15.51-9.59Z"/>
  </g>
  <g id="Layer_20_Image" data-name="Layer 20 Image">
    <path class="cls-1" d="M864.46,802.68c.79-83.03,24.38-48.64,55.12-44.83,7.15.89,15.09,3.38,22.83-.92,10.63-5.9,21.23-21.73,32.06-45.8,2.69-5.98,6.1-10.27,8.76-17.76,1.88.73,5.72-6.78,7.52-5.65,8.46,5.32,12.19,19.76,19.85,31.05,16.81,24.78,38.13,50.54,68.07,45.61,35.42-13.87,67.24,13.47,102.98-5.52,22.57,15.47,4.46,61.87-6.25,83.27-18.59,37.12-90.1,10.9-139.8,53.02-32.79,27.79-22.74,74.88-82.05,59.11-20.68-1.66-43.1,24.49-61.55,6.78-15.74-19.83-43.53-8.08-63.41-22.92-17.7-14.48-58.26,25.1-61.13-8.23,4.99-24.74,6.9-38.24,13.61-44.19,25.02-22.19,63.08,48.28,83.39-83.01Z"/>
  </g>
  <g id="Layer_21_Image" data-name="Layer 21 Image">
    <path class="cls-1" d="M1097.23,1079.43c-40.16,13.25-26.54-16.76-30.15-37.58-3.57-18.18-25.79-23.49-36.44-38.42-64.31-82.76,51.4-128.29,130.35-136.28,2.48-.25,5.27-5.78,7.72-5.38,27.04,4.35,69.25,15.66,113.44,30.38,32.29,10.75,65.4,26.06,95.56,28.2,11.95,6.73,49.36.98,41.36,21.11-15.13,38.08-12.9,80.75-22.85,120.42-3.46,2.31.81,9.7-1.67,9.99-13.48,1.57-24.78-26.03-76.72,6.91-32.41,9.93-57.15-28.75-91.43-17.62-45.21,22.8-84.5,5.12-129.17,18.28Z"/>
  </g>
  <g id="Layer_22_Image" data-name="Layer 22 Image">
    <path class="cls-1" d="M1524.64,809.15c-8.9,31.29-23.36,54.63-14.85,88.16-5.08,32.61-53.73,15.19-76.19,28.71-31.59,2.06-62.12-14.01-94.23-14.62-113.51-47.46-164.1-42.79-165.61-56.07-1.09-9.63,15.39-24.84,24.86-54.53-16.25-112.86,74.3-23.07,132.69-54.02,40.18-7.51,12.89-72.26,58.83-66.49,41.99,7.16,60.63,52.32,104.35,64.18,10.43,10.18,4.36,25.76,11.54,37.35,5.34,9.38,16.04,16.73,18.61,27.34Z"/>
  </g>
  <g id="Layer_23_Image" data-name="Layer 23 Image">
    <path class="cls-1" d="M1639.63,705.14c44.38,7.59,71.64-36.92,115.01-33.07,60.52,11.88,161.17,50.17,122.91,129.13-9.63,33.72-57.8,4.71-78.11,32.51-18.8,18.79-30.26,44.79-55.72,56.57-27.94,4.8-39.18,24.73-52.77,46.68-25.29,29.28-65.53-1.52-95.17-9.89-23.91-11.82-50.64,2.6-74.29-9-16.41-8.85-3.63-32.67-9.97-47.71-5.25-20.68,13.82-35.18,15.83-54.91-2.94-25.89,18.64-28.95,35.44-40.54,28.1-21.65,33.55-74.24,76.85-69.78Z"/>
  </g>
  <g id="Layer_24_Image" data-name="Layer 24 Image">
    <path class="cls-1" d="M2013.17,846.88c16.65,70.95-24.82,75.42-71.1,115.88-51.36,62.93-146.76,50.25-203,106.59-21.5,36.41-39.01,57.71-52.01,56.72-18.5-1.4-28.29-40.11-26.73-89.22,5.61-23.98,16.94-50.82,9.41-77.55-2.17-7.72,6.69-7.57,12.29-11.2,22.07-10.81,20.59-42.32,45.8-48.63,67.59-23.84,77.74-118.84,166.56-61.88,57.37,22.17,93.41-102.87,118.77,9.31Z"/>
  </g>
  <g id="Layer_25_Image" data-name="Layer 25 Image">
    <path class="cls-1" d="M2025.56,786.23c46.08-11.46,95.43-26.1,138.4,6.6,20.76,17.68,47.92,19.5,73.36,25.72,28.08,6.1,53.26,24.36,82.92,17.16,19.62,2.59,10.85,99.47,10.5,117.37,4.67,28.01-23.98,17.93-26.26,39.81,5.59,14.63-16.99,22.31-17.79,35.58,7.59,13.41,4.19,32.73-15.25,31.34-23.42,4.91-48.48-17.81-67.89-28.66-23.84-11.46-51.69-12.64-75.59-24.33-43.21-14.38-40.78-64.38-68.18-91.92-65.88-32.67-24.2-50.37-50.97-97.41-22.3-18.52-9.2-34.4,16.76-31.27Z"/>
  </g>
  <g id="Layer_26_Image" data-name="Layer 26 Image">
    <path class="cls-1" d="M390.71,1503.98c-26.39-.29-34.62,6.47-49.72,24.84-37.78-23.33-25.17.78-55.92,11.56-40.66,14.25-41.55,94.59-55.22,94.03-12.22-.5-24.33-7.79-34.82-9.5-12.08-1.97-2.21-97.21-4.43-105.1.92-61.88-.14-89.69,0-151.32,1.54-13.18,4.88-103.48,4.43-117.13-.35-10.54,77.87-34.53,80.31-44.06,63.63-42.23,144.83-19.48,216.77-25.65,31.36-.17,71.06-15.47,99.02-2.62.83,19.49,20.91,20.72,28.34,36.88,9.66,20.87-24.91,12.32-29.38,28.07-11.57,29.72-50.43,36.18-54.47,67.32-22.07,27.49-36.61,28.14-25.93,63.68-32.76,26.1-40.99,25.37.17,44.87,9.86,21.35,51.86,3.06,50.95,26.84-2.55,8.7,8.37,14.23,15.61,15.11,15.34,6.82,50.8-31.39,51.72-2.89-20.43,12.91,4.27,32.01-12.68,45.68-39.16,74.06-82.53,131.45-146.93,41.46-98.53-1.94-20.84-40.9-77.84-42.07Z"/>
  </g>
  <g id="Layer_27_Image" data-name="Layer 27 Image">
    <path class="cls-1" d="M593.41,1272.2c50.58,2.68,86.46,56.3,141.72,35.58,23.17-2.32,44.13,8.43,62.6,21.21,36.53,8.13,81.11,2.45,109.35,34.66.51,33.88,17.06,39.27,26.85,65.44-10.93,23.06,30.24,52.84.79,63.83-24.74,5.52-30.03,35.24-50,42.11-7.21-1.2-14.66,6.69-15.58,14.12,5.2,35.13-43.69,21.23-64.53,13.5-23.67-36.35-40.47,15.58-62.11-3.52-28.25-24.92-59.4-29.63-88.22-45.39-7.93,0-9.19-8.74-12.67-14.18-14.23-8.73-26.47-19.05-13.9-36.47,5.94-41.49-51.02,11.46-60.73-14.96,3.55-11.46,20.36-15.45,24.14-27.24-10.45,9.43-73.15,11.72-71.89-11.56-13.67,2.82-37.36-5.14-16.7-22.83,42.02-13.94-9.79-26.59,6.9-44.84,25.83-24.07,38.33-73.87,83.94-69.47Z"/>
  </g>
  <g id="Layer_28_Image" data-name="Layer 28 Image">
    <path class="cls-1" d="M982.2,1245.96c-1.33,19.48,9.37,32.01-8.17,47.33-10.68,17.26-11.49,51.58-34.34,59.81-28.23,11.19-57.45-4.61-81.83-20.7-18.25-10.18-39.38,4.02-57.48-6.98-29.85-25.46-63.85-22.43-99.8-17.89-26.82-1.05-48.36-17.88-70.77-30.8-12.34-9.7-51.49-.02-44.86-20.4,11.86-36.42,49.75-17.85,64.01-34.97-12.89-.7-24.47-6.55-30.1-19.11-40.17-10.98,5.78-41.33,17.91-57.48,17.5-4.27,33.87-27.55,50.8-13.93,43.55,14.22,93.61,16.59,138.21,5.51,24.88.09,40.91,25.35,71.29,27.1,61.45,3.56,87.15,20.17,85.12,82.51Z"/>
  </g>
  <g id="Layer_29_Image" data-name="Layer 29 Image">
    <path class="cls-1" d="M1168.21,1095.29c88.71-8.73-40.41,162.67,40.38,203.8,20.5,19.13,96.73,58.24,70.61,88.82-21.9-.6-40.21-.88-59.96,10.55-12.85,6.4,3.55,14.86,4.38,23.5.38,40.43-38.8-5.21-52.63,7.33-3.1,13.2-15.84,14.15-26.23,18.57-13.63,8.01-19.65,25.12-36.32,28.52-11.73,8.78-26.73-3.63-32.43-14.19.07-12.76,15.57-22.75,14.45-33.68-5.38-6.42-13.99.31-19.4,3.03-39.1-2.6-14.54-55.95-24.07-79.58-3.74-16.84-18.58-13.35-30.99-9.96-33.78-17.03-.33-97.84-3.9-131.77-20.54-43.74-22.21-62.49,29.78-76.75,29.87-35.99,80.94-55.23,126.33-38.2Z"/>
  </g>
  <g id="Layer_30_Image" data-name="Layer 30 Image">
    <path class="cls-1" d="M1205.11,1141.24c-11.24-40.06.96-60.12,43.89-61.84,17.79,1.63,28.78,23.65,48.46,18.69,33.61-.15,58.91-36.39,92.6-19.09,23.2,12.26-14.08,38.26,7.46,76.09,4.27,28.43-11.68,54.98-12.51,82.92-6.79,19.27,17.98,52.77-.04,65.81-11.92,4.75-25.75,30.65-40.98,53.72-22.17,33.58-49.81,54.04-57.48,18.35-7.87-36.63-57.75-62.71-79.32-80.38-29.86-24.48-41.12-52.09-2.08-154.27Z"/>
  </g>
  <g id="Layer_31_Image" data-name="Layer 31 Image">
    <path class="cls-1" d="M1420.73,1152.55c-7.42,2.52-11.74,3.69-21.62-2.02-6.48-3.74-5.87-16.59-7.29-20.43-5.45-20.85,18.71-36.64,11.09-57.64.98-7.18-1.4-14.66-.93-22.83,1.84-32.16,4.69-68.31,15.9-99.07,3.55-9.73,9.41-17.75,17.47-23.99,72.95-18.41,151.36-2.89,220.18,23.91,45.03,20.96-26.95,121.06,19.72,170.61,10.89,11.42-3.62,39.98-12.27,57.67-3.11,6.36-15.13-1.92-20.71-3.39-21.46-5.65-53.43-5.93-78.78-12.59-22.05-13.87-44.62,3.36-67.65.43-17.21-3.78-28.67-.1-40.3-.26-9.58-.14-18.92-3.51-34.81-10.41Z"/>
  </g>
  <g id="Layer_32_Image" data-name="Layer 32 Image">
    <path class="cls-1" d="M1915.96,1253.31c-38.87,8.91-75.54-4.69-114.59-10.1-30.35-4.21-19.44-17.76-48.51-16.76s-88.15,27.64-98.04-9.33c10.41-34.06,14.34-71.73,45.44-94.87,44.75-59.58,82.66-91.83,158.32-105.26,52.36-19.82,50.67-42.07,71.38,10.71,25.45,23.92,2.96,47.79-3.93,73.96-.02,14.7,6.72,30.25-.49,44.37-20.99,28.55,31.02,95.27-9.58,107.27Z"/>
  </g>
  <g id="Layer_33_Image" data-name="Layer 33 Image">
    <path class="cls-1" d="M2105.79,1248.32c-16.7,1.71-30.51,6.78-43.81-7.36-14.95-.04-31.28-3.7-46.24-.81-21.23,8.02-73.83,24.88-81.91-4.66,6.59-29.21-21.86-56.08-7.99-84.22,12.33-29-5.58-58.66,19.52-84.89,9.8-19.8-9-34.28-17.83-50.09-17.72-53.04,62.33-71.57,87.58-106.93,59.32-31.79,57.72,73.12,99,92.92,37.85,30.15,109.62,19.04,131.53,68.13,2.89,16.79,8.84,35.24-9.27,45.2-13.26,18.54-22.01,37.58-42.38,49.38-7.89,8.91-13.36.05-16.62-7.61-7.68-13.58-24.43-5.45-36.43-4.25-26.08,9.8,25.54,57.94-20.57,46.83-21.96,10.43,34.79,50.09-14.59,48.36Z"/>
  </g>
  <g id="Layer_34_Image" data-name="Layer 34 Image">
    <path class="cls-1" d="M2253.11,1089.26c-9.08-34.73,46.52-11.36,38.94-50.73,3.9-18.46,37.23-88.84,44.98-37.07-1.65,30.64-9.73,59.85-2.64,89.73-2.53,22.43,3.78,46.4-.17,68.18-9.84,14.27-5.27,28.85-2.49,43.73-4.23,65.76,9.85,131.1.74,197.25.13,32.77,16.25,117.02-16.74,135.63-62.14,16.29-127.03,3.89-189.14,16.41-44.89,26.04-79.99,26.22-126.91,5.48-34.44,1.16-34.36-52.07-71.49-35.82-6.62.64-12.89-5.13-6.88-11.28,25.67-22.97,61.45,3.71,91.34,2.17,32.63,1.45,64.32-13.63,96.7-11.74,29.85-10.03-25.67-45.29-41.48-38.15-8.66,2.9-15.98-1.29-14.71-10.32-1.6-52.95,41.34-26.92,67.65-51.71,51.49-37.92-3.69-23.07-17.86-36.22-13.74-13.94-4.64-35.71-18.53-48.08-14.41-20.61-38.68-32.65-30.35-61.17.52-7.17,7.43-12.07,13.58-7.51,16.01,12.6,73.59,7.82,59-23.06-16.31-32.89,37.8-3.8,10.59-53.99-4.53-18.3,35.85-24.99,40.34-7.95,5.13,11.44,8.41,12.27,18.78,5.43,14.45-9.1,30.4-15.3,34.27-33.81,4.96-17.75,25.74-25.83,22.5-45.39Z"/>
  </g>
  <g id="Layer_35_Image" data-name="Layer 35 Image">
    <path class="cls-1" d="M247.58,1803.97c-34.48-9.27-52.5,2.77-52.55-8.12-.12-27.84-13.99-123.73,0-161.44,5.94-16.01,30.75,10.22,41.15,3.8,21.53-13.3,11.4-75.34,37.54-86.92,48.38-21.42,26.78-43.41,65.44-18.09,22.84-12.32,11.29-28.37,52.05-25.83,28.32-2.93,14.84,16.58,25.83,28.55,16.25,21.6,42.53,1.7,56.92,19.84,19.83,25.42,49.21,42.79,65.84,70.76,2.33,12.3-6.65,24.91,1.82,36.33,16.37,47.02,40.07-9.68,72.97.25,42.75,18.97-22.46,39.06-30.18,59.56-6.77,15.33,13.69,13.12,22.68,15.34,14.42,10.12,14.25,32.55,21.66,47.86-.57,10.76,15.64,17.26,11.65,27.44-11.85,11.96-25.06-12.6-39.24-11.52-22.51,2.18-34.29,11.91-52.22-9.39-20.32-11.72-45.29,1.42-66.84-6.82-17.21-6.7-23.03,14.21-37.65,17.35-15.78,1.66-32.53,9.43-47.51,4.15-25.81-9.09-59.03,3.42-88.57,5.89-25.17,2.11-47.66-6.04-60.78-8.97Z"/>
  </g>
  <g id="Layer_36_Image" data-name="Layer 36 Image">
    <path class="cls-1" d="M1050.91,1372.04c-18.21,75.16,29.73,48.51,32.25,71.51-29.74,46.24,52.95,40.68,19.52,75.02-7.16,7.22-11.55,15.89-14.89,25.38,11.16,9.47,60.6-.61,38.86,22.65-27.76,12.77-42.13,45.34-21.75,70.21-16.01,6.14-27.14,19.34-39.81,30.26-19.02,18.09-20.65,12.31-42.42,11.64-45.81,20.4-3.17,52.62,30.25,40.27,30.14-15.5,53.89,39.53,25.61,53.64-53.32,23.87-9.4,31.59-18.21,53.65-119.73,63.65-266.36,57.61-402.24,59.71-35.39,3.41-35-47.53-15.43-66,2.73-3.07,2.75-10.74,1.05-15.16-14.33-22.82-14.54-64.89-45.53-70.21-27.16-10.24,17.18-35.16,27.74-43.13,29.54-39.19-44.83-37.48-60.96-13.95-16.14,6.99-25.88-24.47-23.05-36.07,11-16.89-23.74-32.48-4.07-42.52,46.61-15.04,58.91-59.8,85.09-95.34,13.74-17.78,21.24,9.81,34.46,14.33,24.37,18.62,57.13,15.7,75.53,41.22,24.08,29.14,47.24-34.59,67.34,2.48,3.65,5.78,14.08,8.72,21.9,10.06,62.16,10.36,30.34-11.38,63.94-34.27,59.73-42.24,71.54-51.68,46.6-124.21-35.9-47.53-1.99-39.96,22.1-68.19,19.98-24.21,46.21-6.46,68.91-2.94,20.81-7.41,23.67,15.96,27.23,29.96Z"/>
  </g>
  <g id="Layer_37_Image" data-name="Layer 37 Image">
    <path class="cls-1" d="M1260.39,1400.65c19.86,10.9,53.6-11.4,74.53-11.79,12.94-.24,20.4,10.99,18.39,34.36-6.97,23.56,28.87,29.39,48.11,45.37,9.98,8.29,17.76,26.15,8.01,36.14-2.15,2.21-7.47.16-11.1,2.58-20.41,3.14-33.93,9.38-43.3,15.12-34.66,21.25-8.08,54.78-24.39,73.91-36.78.76-65.01,41.03-102.29,24.4-46.15,5.69-60.44,38.82-115.63,9.15-29.75-10.07-6.99-52.62,13.56-61.43,8.24-2.63,15.28-13.16,6.22-19.49-12.7-11.34-29.5,5.35-40.64-6.45,4.59-28.72,41.58-52.76,64.7-70.93,14.45-3.45,21.41-10.4,29.56-21.71,32.6,9.1,51.21,32.88,70.73-15,9.23-14.54-27.17-32.75,3.53-34.24Z"/>
  </g>
  <g id="Layer_38_Image" data-name="Layer 38 Image">
    <path class="cls-1" d="M1545.54,1601.24c-46.24-22.79-94.75-49.64-127.07-91.95-6.79-10.83,3.07-29.23-14.34-41.82-12.56-9.08-31.8-12.64-41.45-22.9-4.1-4.36-8.37-10.88-8.2-18.26.09-3.79,1.67-8.21,1.86-12.85.1-2.39.22-4.66-.75-6.89-5.96-13.86-29.65-22.41-12.29-32.79,3.79-2.27,8.71-11.6,10.8-18.26,2.75-8.74,7.97-17.31,11.99-25.18,16.18-31.66,25.42-38.15,29.09-28.6,1.43,3.73-2.18,14.11-.26,20.07,8.55,26.63-2.31,40.19,54.11,65.98,21.16,9.67,80.54,13.12,107.79,9.36,9.2-1.27,16.62-5.62,24.51-8.86,10.58-4.35,20.76-7.79,25.55-9.39,9.28-3.09,5.5,4.18,4.53,15.16,2.17,35.29-2.8,65.42-21.42,96.67.88,39.35,3.96,96.68-44.46,110.5Z"/>
  </g>
  <g id="Layer_39_Image" data-name="Layer 39 Image">
    <path class="cls-1" d="M1700.07,1380.02c-8.52-2.7-16.26-.3-24.62-2.15-38.88-8.58-79.17-.87-110.65,15.83-8.62,4.57-19.95,3.08-29.54,5.71-26.79-3.4-59.12-3.67-85.83-13.47-13.16-4.83-24.32-12.91-34.04-22.97-12.98-13.47-20.19-31.69-20.45-47.94-.18-11.08,7.55-20.96.55-28.88-18.48-20.92-6.92-99.28,11.49-126.58,5.13-7.61,19.03-3.5,29.62.14,9.87,5.91,19.91,9.86,31.18,5.63,3.97-1.33,8.44-3.17,12.41-3.08,14.53.33,28.56,8.7,43.07,1.13,7.38-.37,11.21-5.44,18.5-3.82,37.27,8.28,72.4,15.41,106.92,17.03,28.82,6.99-11.68,60.13,14.05,95.32,2.84,17.85,22.38,25.96,21.95,45.11,8.57,18.98,58.64,53.63,15.4,62.99Z"/>
  </g>
  <g id="Layer_40_Image" data-name="Layer 40 Image">
    <path class="cls-1" d="M1845.15,1540.29c4.38,38.72-38.36,61.07-49.15,93.03-.83,9.35,4.54,30.1-11.25,26.56-58.08-45.08-144.2-71.37-189.91-117.82-23.72-24.09,31.81-97.68,21.14-151.27,10.93-30.35,51.43-6.51,74.34-6.78,12.48.29,30.11-3.44,31.72,14.16,14.24,72.65,99.02-18.84,102.52,82.36-.36,24.08,21.07,35.36,20.6,59.75Z"/>
  </g>
  <g id="Layer_41_Image" data-name="Layer 41 Image">
    <path class="cls-1" d="M1721.18,1367.68c1.32-17.85-12.04-27.65-23.53-38.13-11.47-17.61-16.26-37.41-29.42-54.37-9.76-25.26-15.27-38.95-10.54-40.31,6.08-1.75,26.32,13.59,46.88,16.15,16.41-7.66,30.52-13.18,43.09-11.19,23.77,3.78,33.4,20.11,63.02,19.21,2.45-.08,16.61-2.05,19.21-2.4,28.92,18.6,52.83,19.19,82.82,5.4,35.54,1.2,74.82,6.63,109.6-3.02,15.3-3.3,28.1,2.55,25.28,19.92,4.1,11.55,21.83,11.72,23.64,25.5,13.74,19.51,20.41,15.67,20.21,42.26,15.83,29.14,10.26,23.21,40.67,24.07,20.38,13.41-19.08,32.56-30.14,38.77-21.88,3.69-48.12.95-49.67,31.09-8.31,32.32,22.84,18.66,38.77,31.1,44.87,32.21-62.19,34.2-81.44,39.56-20.41,1.16-38.52-11.6-59.38-12.07-30-8.04-49.59,37.97-77.96,18.24-42.65,1.11-14.52-57.18-37.82-77.08-35.36-52.27-114.83,14.6-113.28-72.71Z"/>
  </g>
  <g id="Layer_42_Image" data-name="Layer 42 Image">
    <path class="cls-1" d="M2062.89,1616.72c-44.22-9.67-18.24,29.55-19.23,50.85-7.29,19.89,14.15,32.7,24.17,46.94,31.65,18.57,41.08-14.21,44.69,45.4-1.13,14.91-16.88-.24-23.71-2.79-38.93-27.05-80.25,41.46-111.9,16.09-6.82-51.01-52.42-51.81-88.68-71.22-23.27-22.62-71.3-12.51-86.27-42.26-16.8-49.23,57.26-69.15,46.58-120,14.75-19,34.98,20.51,86.65-18.92,26.63-7.88,30.35,31.85,53.36,36.41,27.06.11,45.79,20.59,73.47,20.13,17.58,3.4,24.51,41.73.87,39.36Z"/>
  </g>
  <g id="Layer_43_Image" data-name="Layer 43 Image">
    <path class="cls-1" d="M2161.36,1544.68c42.63,23.07,159.69-35.53,167.86,8.58-.22,86.12,7.72,174.32,4.3,258.6-10.94,73.86,11.34,158.92-3.14,231.72,2.87,43.83,20.34,79.25-34.24,95.65-27.17,26.91-54.73-10.48-87.08,3.09-19.45-10.27-5.12-34.79-35.12-42.06-105.38-26.08,17.24-42.19-57.3-118.98,9.7-18.18,18.56-33.92,11.47-55.44,15.35-28.12,6.76-51.09-5.47-77.71-3.68-8.05,4.36-13.53,7.4-20.31-1.4-15.78-26.33-23.13-6.68-41.13-17.15-119.06-21.01-38.49-61.26-85.3-21.56-14.05-10.8-35.38-18.45-54.58-8.3-10.84-6.48-34.02,11.82-28.36,66.72,6.09-37.17-58.2,105.88-73.77Z"/>
  </g>
  <g id="Layer_44_Image" data-name="Layer 44 Image">
    <path class="cls-1" d="M199.47,2056.06c-19.28-57.93-.89-196.76-2.53-245.65-3.44-21.67,89.05,13.95,107.63,12.66,33.47-18.93,64-13.94,99.92-12.78,12.04-1.27,44.93-16.08,45.05,4.59.19,34.46-35.89,16.25-5.47,51.45,38.31,44.34-50.9,45.98-50.75,76.44s45.52,55.85,20.65,76.82c-13.96,11.77-31.88,7.89-43.51,22.44-5.72,14.82,17.86,19.5,27.64,24.9,2.82,3.99-2.64,11.9-6.29,15.05-7.96,8.16-6.02,18.76-14.69,26.76-13.12,10.7,7.1,30.93-1.73,41.11-17.8-3.79-26.34-10.27-54.05.14-17.91,6.73-33.56,6.92-43.34,6.73-5.9-.12-19.65-16.84-25.32-16.8-24.45.14-46.09,1.75-58.88,5.41-14.73,4.21,9.84-76.83,5.7-89.27Z"/>
  </g>
  <g id="Layer_45_Image" data-name="Layer 45 Image">
    <path class="cls-1" d="M472.48,1877.19c-10.24-10.37-22.04-22.88-22.94-33.02-2.46-27.6,35.53-51.52,70.61-41.6,10.96,3.1,15.41,12.56,26.57,21.95,19.8,16.66,41.91,4.07,54.17,2.96,13.43-1.22,24.27,12.05,24.56,36.7,23.55,75.55,48.89,14.94,60.94,39.55,4.58,14.47,21.79,27.24,15.26,44.46-8.93,23.18-28.42,2.28-43.94,11.3-13.65-5.64-42.71-22.32-50.15-.78,2.58,23.68-43.59,28.5-15.99,50.71,6.62,9.25-6.38,14.44-11.73,20.03-4.15,5.9-7.85,13.73-12.61,17.51-5.07,4.01-11.31,3.76-19.69,2.44-8.92,7.84,1.81,7.24,7.65,16.72s6.81,29.05-13.89,60.4c-6.96,16.51-24.81,5.4-37.82,5.75-12-2.13-21.6,6.16-32.27,10.11-15.34,3.18-29.71-11.41-44.44-2.11-19.09,12.56-37.48,22.97-44.82,16.71-5.75-4.9-7.23-22.32-.27-37.77,1.9-4.21,5.89-4.1,8.82-8.58,4.36-6.66,4.96-17.22,10.88-24.26,11.4-13.56,24.96-23.39-.16-32.59-6.19-3.57-12.82-6.83-11.06-10.37,2.14-4.31,13.93-8.78,18.79-11.48,3.34-1.91,1.59-7.68,5.84-7.4,6.24.4,18.15,6.55,18.4-2.59,1.05-2.94-2.43-5.68-1.98-8.63,1.24-8.1,6.15-11.87,4.38-19.7-2.34-10.4-12.58-24.65-21.07-33.39-4.56-56.4,51.53-19.97,57.97-83.02Z"/>
  </g>
  <g id="Layer_46_Image" data-name="Layer 46 Image">
	<path class="cls-1" d="M801.66,2206.01c-58.36,2.79-116.46,9.23-174.28,17.13-15.18-10.38-29.74-25.47-48.42-8.14-16.21,7.36-8.84-15.79-18.07-21.7-7.66-6.82-31.56-3.38-26.03-18.82,22.94-19.62,20.66-15.59,10.6-43.24,5.31-27.49,19.63-37.49,12.79-69.8,78.85-74.23-1.85-46.55,40.21-81.45,12.77-9.46,10.07-36.07,32-27.37,42.3,16.04,98.01,16.76,62.08-43.24-22.78-39.27,96.46-16.43,120.53-25.36,53.28,9.03,113.95-23.44,162.58-3.83,10.2,15.92-8.1,34.62-.56,49.41,4.53,3.97,4.08,9.93.26,14.57-7.01,16.22,32,27.96,25.77,45.49-32.58,4.53-24.63,23.42-49.18,23.3-17.02-1.92-8.55,24.09-22.07,24.34-11.6,1.06-24.45-13.73-34.18-4.44-8.46,9.81-29.45,26.66-20.91,40.15,5.6,5.8,10.93,3.24,17.33,2.19,11.2,6.59-3.88,16.66-.55,26.46-.45,4.14-5.55,10.33-10.7,8.74-23.64-.2-54.16,31.14-34.74,53.54-.3,11.98-17.64,16.95-15.84,30.31-1.63,13.03-19.77,12.27-28.61,11.77Z"/>
  </g>
  <g id="Layer_47_Image" data-name="Layer 47 Image">
    <path class="cls-1" d="M1147.92,2041.11c-35.18.04-29.4,3.16-50.35-23.81-44.96-1.95-66.18-8.82-99.13-42.81-28.81-25.23-21.79-62-13.7-95.19-9.34-33.95,24.16-34.76,47.72-34.91,75.48-18.52-30.5-68.38,71.05-69.42,6.23-2.65,10-9.75,15.7-13.24,13.59-9.95,30.38.37,39.75,11.59,7.34,8.39-6.31,18.97,1.73,27.14,11.44,18.58,40.19,21.54,43.04,44.63-6.65,26.57,18.31,38.66,22.22,59.47-15.69,34.58,7.39,72.49-43.29,80.98-15.25,17.03.42,55.88-34.73,55.57Z"/>
  </g>
  <g id="Layer_48_Image" data-name="Layer 48 Image">
    <path class="cls-1" d="M1332.81,1809.31c-73.69-.6-30.35,94.81-77.98,89.45-44.75-28.6-22.03-66.75-39.86-90.52-8.59-3.26-28.96-6.94-22.74-19.95,22.56-20.39-10.83-31.12-27.18-38.22-23.98-17.63-54.55-41.24-83.98-38.08-20.6,8.43-101.75,5.03-61.5-30.09,5.79-5.23,12.99-.25,19.21,1.27,13.41-2.86,26.91-13.21,39.29-19.56,15.42-44.09,66.55,15,98.46,3.18,26.07-4.49,33.27-46.59,65.8-25.91,39.36,11.87,54.73-35.85,92.64-34.97,18.75-3.7,46.8,68.89,45.45,85.23-8.95,40.17,18.91,123.22-47.6,118.16Z"/>
  </g>
  <g id="Layer_49_Image" data-name="Layer 49 Image">
    <path class="cls-1" d="M1558.93,1633.31c-3.53,20.22,7.81,35.85,20.09,51.06,17.98,22.28,41.8,42.57,55.4,66.13,15.29,27.47,23.82,49.96,15.29,56.19-14.4,10.52-113.95-26.49-144.3-39.76-30.56-7.7-61.56,7.46-92.03,6.61-15.13.63-26.13,2.41-30.61-5.06-13.6-22.69,11.98-79.88-4.18-104.3-14.38-34.77-58.49-89.58-37.89-125.16,3.69-6.38,11.01-10.28,19.29-15.34,20.4-14.75,37.68-20.4,52.62-13.53,19.53,8.97,35.62,35.34,54.94,50.41,27.36,25.37,87,31.85,91.39,72.76Z"/>
  </g>
  <g id="Layer_50_Image" data-name="Layer 50 Image">
    <path class="cls-1" d="M1561.65,1654.59c-1.2-22.17-9.16-38.71-3.34-48.53s17.37-25.21,37.97-50.02c23.44-5.97,43.66,27.82,66.91,34.09,41.67,22.72,82.04,42.58,120.18,72.27,14.86,17.33,68.55,14.57,64.47,38.39-11.32,25.44-47.34,21.04-59.48,46.9-31.39,24.7-59.14,17.78-72.61,67.71-13.61,16.56-64.18-3.22-65.94-24.98-6.44-55.96-64.91-89.2-88.17-135.84Z"/>
  </g>
  <g id="Layer_51_Image" data-name="Layer 51 Image">
    <path class="cls-1" d="M1843.68,1906.02c6.1-59.91-52.72-23.5-81.1-43.74-17.87-4.83-41.1-13.1-48.93-30.69,9.52-24.83,17.89-57.8,47.61-64.28,30.4-3.03,35.87-38.53,65.63-43.42,23.18-7.23,30.37-45.67,57.41-19.27,38.81,19.41,82.39,22.9,90.89,74.37,3.41,40.09-60.17,58.1-73.48,102.14-7.29,16-27.92,1.71-37.78,15.33-4.09,7.96-23.27,22.19-20.26,9.56Z"/>
  </g>
  <g id="Layer_52_Image" data-name="Layer 52 Image">
    <path class="cls-1" d="M1902.36,1906.62c-8.02-46.35,44.47-73,69.79-103.32,10.27-19.23,31.71-23.12,50.25-30.24,24.18-18.14,51.56-24.51,77.16-4.55,23.29,9.16-9.22,19.38,10.64,34.71,6.79,14.75,19.43,21.14,3.65,35.81,6.22,14.51,6.32,32.01,15.04,44.7,8.74,14.33-2.9,33.56-3.35,49.52,5.55,32.89-21.09,50.74-48.22,30.5-23.13-1.23-49.67,16.12-63.94-13.72-7.82-7.22-19.46-6.74-29.02-10.51-8.68-2.24-14.74,11.31-23.18,6.35-17.79-26.79-62.11,1.19-58.82-39.24Z"/>
  </g>
  <g id="Layer_53_Image" data-name="Layer 53 Image">
    <path class="cls-1" d="M336.31,2150.6c14.93,3.38,25.27-3.18,38.26,1.45,6.05,7.46,11.16,13.01,21.11,9.35,14.29-8.71,28.62-15.97,43.45-17.82s30.18,1.7,44.62-3.06c5.3-2.76,7.72-6.74,13.94-7.34,11.34-1.1,26.04,2.28,37.48,3.68,2.18.27,4.41-7.87,6.31-7.79,10.07,7.58,11.45,23.91,7.12,31.2-6.53,10.97-23.93,12.67-27.72,22.62,3.73,11.29,25.1,3.6,34.29,8.31,22.69,11.79-.64,48.13,38.19,19.62,23.17-8.23,34.99,16.78,28.86,31.49-7.48,17.93-50.56,18.94-57.84,16.4-9.82-3.43-36.76,6.7-25.68,20.75,42.86,54.33-57.2,25.92-80.47,23.17-16.26-.7-21.63,23.74-38.81,19.03-27.07,2.69-59.99,10.47-81.16,29.02-17.99,14.51-30.7-10-50.17-8.44-4.81-3.55-12.02-23.19-29.12-17.73-29.76,9.5-52.07,9.61-60.78,1.9-21.23-18.78-.23-57.19-3.8-72.18.86-42.31-22.33-85.34-5.39-102.57,4.23-4.3,45.55-13.65,70.51,2.66,45.58,29.77,61.86-2.3,76.79-3.73Z"/>
  </g>
  <g id="Layer_54_Image" data-name="Layer 54 Image">
    <path class="cls-1" d="M996.91,2273.07c-28.2,6.59-46.2,3.82-54.5-3.66-10.17-9.16-8.24-23.85-22.88-18.04-22.38,3.25-18.11,40.29-43.19,28.33-36.68-14.21-62.28-48.8-15.64-69.96-25.86,8.22-36.21-29.89-11.01-34.33,7.47,1.71,29.11,1.79,17.81-10-14.28.63-19.12-9.53-20.21-22.57-1.09-17.36,23.55-17.52,33.59-27.71,11.43-1.29,21,14.68,35.01,14.02,26.61,4.32,45.64,23.03,69.34,31.31,19.32-4.14,28.35,13.27,44.35,19.11,16.6,1.16,42.75-3.68,42.91,20.95-13.87,43.02,55.19,128.43-36.16,99.92-23.42-1.13-7.01-32.88-39.41-27.38Z"/>
  </g>
  <g id="Layer_55_Image" data-name="Layer 55 Image">
    <path class="cls-1" d="M991.55,1996.23c26.47,5.99,47.3,29.41,76.26,31.67,17.71,3.92,24.42,25.58,43.03,27.32,28.75,3.38,11.34,20.29.1,34-16.66,24.02,45.76,40.09,12.49,63.53-17.75,3.86-30.52,14.95-43.15,27.22-2.05,1.22-6.77-.59-7.72-2.68-7.11-19.26-32.8.39-42.59-17.22-5.44-8.39-13.36-15.42-23.63-14.89-22.15,2.2-27.49-24.72-46.34-26.39-18.13-9.75-59.26-2.08-64.71-25.98,1.72-5.11,5.54-10.86.9-15.68-5.88-7.5-18.53-17.49-10.35-27.31,13.04-28.14,31.16-7.51,53.54-11.2,8.74-.74,15.17-7.37,13.51-16.06,13.6-7.42,23.88-22.05,38.66-26.33Z"/>
  </g>
  <g id="Layer_56_Image" data-name="Layer 56 Image">
    <path class="cls-1" d="M1429.8,2070.71c.09,9.31,2.51,21.58,1.65,26.65-3.17,18.63-16.37,8.28-40.47,18.69-27.79,6.98-58.89-23.04-83.41-.38-19.07,14.29-48.92.14-63.66,7.68-19.47,9.96-35.34,19.95-56.55,21.95-19.79,13.4-70.77,20.64-39.75-15.22,2.45-6.39-4.43-11.8-8.71-15.72-26.82-26.73,50.86-24.89,21.87-62.72,3.81-17.31,23.29-30.79,17.59-53.02.91-12.17,15.35-15.19,25.58-17.2,29.68-9.55,11.62-45.26,20.3-66.93,11.52-17.21,33.05,32.64,49.31,36.32,20.18,4.86,36.71,3.14,41.57,5.73,8.14,4.34-6.23,18.71,19.37,33.96,35.92,21.4,93.29,22.56,95.32,80.19ZM1166.47,2066.99c.18,2.21.31,1.7.43-.16-.17-1.82-.32-1.44-.43.16Z"/>
  </g>
  <g id="Layer_57_Image" data-name="Layer 57 Image">
    <path class="cls-1" d="M1343.78,1825.41c59.59,5.71,20.01-51.66,50.27-52.99,26.87,15.36,84.45-18.78,116.45-2.22,4.26,2.21-.51,4.92,1.53,10.22-23.96,45.72,22.98,59.59-2.46,118.63,2.36,17.08,21.37,23.41,32.83,33.57,29.26,19.81,23.16,63.47,46.41,84.55,52.42,47.52-46.03,14.83-68.24,16.28-17.84,4.32-35.93,7.73-54.19,9.91-18.4,2.9-25.55-17.08-36.59-27.59-22.34-11.84-43.82-25.23-67.07-35.24-10.24-3.78-14.42-13.51-16.14-23.49-9.12-31.36-64.35-5.46-70.79-40.15,1.93-18.3,28.06-22.93,26.98-42.79-10.99-30.66,6.89-53.08,41.03-48.7Z"/>
  </g>
  <g id="Layer_58_Image" data-name="Layer 58 Image">
    <path class="cls-1" d="M1782.35,1898.64c-9.45,33.64,18.24,73.28-8.53,102.4-10.33,11.24-21.38,38.97-23.13,59.42-1.71,19.93,4.64,29.18-14.68,15.44-31.04-22.09-101.27-13.55-132.92-46.22-10.98-11.33-18.88-19.51-24.82-33.22-11.31-26.11-18.47-58.45-47.12-73.67-12.19-7.88-24.93-19.37-18.55-35.08,24.02-32.1-14.47-61.59-4.33-93.21,4.36-13.86,4.28-22.27,12.78-20.91,15.21,2.44,42.02,25.23,58.09,26.38,41.76,11.09,86.13,8.78,118.3,42.13,17.21,25.95,65.04,22.55,83.38,42.92,2.89,3.21.06,9.14,1.55,13.61Z"/>
  </g>
  <g id="Layer_59_Image" data-name="Layer 59 Image">
    <path class="cls-1" d="M1759.38,2120.55c-19.23-55.51-1.63-90.05,28.23-137.42,10.7-24.76-15.6-79.87-.4-100.74,2.46-3.38,6.78-.32,11.67-2.26,4.83,2,12.03,6.04,15.81,9.79,20.45,20.24,26.93,60.96,64.26,21.82,15.95,3.23,9.82,44.69,44.42,38.49,20.11-3.28,25.72,20.41,43.87,23.06,6.55,1.33,11.61,8.7,8.64,15.07-53.17,85.36,28.59,67.26,12.06,116.96-22.27,66.96,36.72,83.93-10.6,96.33-21.39,7.68-41.23-.78-62.25-7.2-11.75-3.08-20.45,9.74-32.71,7.86-13.31,2.28-26.34-7.46-39.02-1.44-25.34,19.15-91.63-49.33-83.96-80.31Z"/>
  </g>
  <g id="Layer_60_Image" data-name="Layer 60 Image">
    <path class="cls-1" d="M2139.21,2024.32c-4.11,11.93,2.32,26.41-9.41,34.64-3.39,2.12-6.12,16.57-3.01,20.33,16.19,19.56,95.81,25.25,54.59,49.32-16.48,10.25-29.05,23.73-43.67,32.75-6.85,4.23-20.59,4.88-29.36,7.53-19.09,10.65,26.35,40.72-4.52,44.8-31.67,1.64-60.56-3.14-88.86-17.66-4.09-2.97-7.87,1.28-11.66-3.04-19.61-22.44-32.72-68.12-12.05-90.35,12.25-30.43-38.21-38.96-33.88-69.27,8.02-20.75,27.11-69.27,42.54-73.04,6.12-1.49,16.34,10.17,24.18,19.89,11.82,15.06,37.22,5.63,51.49,5.71,7.13.04,4.13,6.53,9.95,11.5,8.81,2.59,14.74-3.96,23.55-4.73,14.69-1.29,30.46,4.72,30.12,31.62Z"/>
  </g>
  <g id="Layer_61_Image" data-name="Layer 61 Image">
    <path class="cls-1" d="M552.71,2343.62c-4.29,27.47-30.17,40.13,15.05,40.78,25.92,17.57.26,67.68,21.25,88.4,12.59,10.22-32.03,48.68-49.08,27.32-40.74,24.07-34.93-9.04-44.72,42.3-4.34,31.04-30.12,42.6-51.7,59.7-8.31,10.42-15.83-.43-23.86-4.92-52.95,18.37-44.52-45.48-59.75-17.93-10.97,41.69-43.2-7.45-63.91-10.74-41.45-6.58-5.36,68.12-39.1,75.24-13.5,2.85-45.3-4.19-58.71-6.06-23.42-3.26-7.64-37.71-9.18-44.74-6.57-30.04,1.15-208.46,3.49-250.09,1.02-18.17,53.82-1.27,74.08-13.3,11.9-7.07,10.97,15.02,15.2,15.2,21.41.88,39.55,18.89,59.53,7.82,22.57-12.5,41.62-23.58,65.54-27.85,12.62-2.25,26.16-2.04,35.59-9.73,26-19.2,63.1,4.22,93.35-1.52,4.71.77,16.5-4.15,18.29-.52,2.99,6.05-3.47,24.75-1.37,30.65Z"/>
  </g>
  <g id="Layer_62_Image" data-name="Layer 62 Image">
    <path class="cls-1" d="M275.6,2598.01c-1.63-73.32,59.35,23.24,82.43-6.81,19.08-13.57,32.12,25.62,56.16,9.57,11.3-1.83,21.64,16.83,32.85,4.01,34.33-17.28,51.61-45.44,55.67-83.21,17.89-22.28,51.97,1.04,70.78-15.26,40.05-25.5,14.8-29.42,13.33-63.74-.81-11.14-8.97-24.29-7.15-35.64,9.92-32.65-44.34-15.17-29.8-41.59,34.4-93.03-58.36-101.56,30.7-101.29,14.52-3.14,38.92-1.33,43.36-18.98,4.58-37.63,162.78-25.05,203-35.74,24.18,7.06-9.69,43.78,14.34,55.15,9.89,6.45,25.64,9.43,24.47,24.81,1.11,28.55-16.58,21.19-28.64,36.76,24.04,27.81-5.02,37.16-22.96,58.64-12.79,24.52,55.57-.32-2.44,69.47-15.99,10.57,7.91,23.09-5.11,35.57-17.49,66.53-97.01,70.27-143.37,106.2-48.55,13.83-71.26,79.08-109.12,81.95-48.08-.36-96.1-2.17-144.38-1.86-31.09,11.86-61.27-11.69-94.16-4.14-30.56-7.32-167.52,32.25-132.28-32.28,43.18.28,104.34,27.54,92.3-41.6Z"/>
  </g>
  <g id="Layer_63_Image" data-name="Layer 63 Image">
    <path class="cls-1" d="M1013.1,2312.59c106.66-21.5,37.72,53.14,36.88,111.83-15.77,40.02-192.28,57.6-235.48,49.98-23.1-4.08,49.66-58.67,9.85-78.81-5.36-3.91-11.45-9.84-4.22-15.95,75.89-57.66-28.08-32.5,56.99-79.22,22.62,13.25,35.39-14.58,52.7-14.1,12.84,9.54,28.26,12.29,43.4,7.35,46.35-18.32,14.44,16.1,39.89,18.92Z"/>
  </g>
  <g id="Layer_64_Image" data-name="Layer 64 Image">
    <path class="cls-1" d="M1241.68,2293.85c-.21,27.75-16.47,57.8-5.85,84.73,17.52,24.39,2.88,47.68-10.25,69.99-13.89,42.01,3.24,52.14-48.27,66.41-76.19,23.67-131.77-19.84-122.39-100.16,8.2-45.38,23.1-87.94,32.66-131.29-29.01-56.87-11.33-154,69.45-119.93,17.68,24.47,43.83,39.84,61.71,59.89,15.72,17.63,24.51,39.12,22.95,70.37Z"/>
  </g>
  <g id="Layer_65_Image" data-name="Layer 65 Image">
    <path class="cls-1" d="M1257.73,2286.12c-24.19-4.54-16.9-42.71-31.15-59.14-19.52-17.29-54.25-39.34-62.05-56.21-6.57-14.19,7.39-24.46,50.82-27.61,13.13-10.63,24.46-18.33,35.39-20.21,24.49-4.21,46.07,7.42,74.91-14,19.46-4.39,38.32,13.37,58.25,9.81,13.91-2.3,27.76-12.61,42-6.95,22.56,13.65,41.79,18.11,50.34,28.46s6.59,27.53,5.65,57.7c-21.66,22.55-36.21,4.61-61.26,52.15-40.93,114.93-71.47,15.92-162.9,35.99Z"/>
  </g>
  <g id="Layer_66_Image" data-name="Layer 66 Image">
    <path class="cls-1" d="M1633.44,2404.86c-84.11-10.92-173.44-34.6-242.18-83.61,11.81-32.34,31.01-79.65,60.49-104.84,43.92-8.96,87.3-38.49,133.86-24.44,145.63,29.16,155.44,41.11,172.24,187.56.92,23.77-95.99,10.76-124.41,25.34Z"/>
  </g>
  <g id="Layer_67_Image" data-name="Layer 67 Image">
    <path class="cls-1" d="M1649.08,2201.1c-174.57-47.99-162.96,55.05-160.79-42.75-2.67-22.06-28.89-38.08-42.16-54.96-7.96-10.13-6.86-24.75,1.11-41.32,2.55-4.86-2.04-9.8,3.78-13.27,14.95-8.9,50.07-9.04,78.68-12.8,35.09-4.62,162.06,24.31,191.47,34.62,67.31,33.55-2.84,80.3,100.11,136.49,11.19,24.13-36.87,15.13-47.12,31.05-43.32,33.48-80.21-37.51-125.09-37.06Z"/>
  </g>
  <g id="Layer_68_Image" data-name="Layer 68 Image">
    <path class="cls-1" d="M1898.85,2394.16c-40.28,1.4-80.29-.8-120.7-.78-20.4-.18-15.84-26.67-21.12-40.4-.77-30.1-18.41-70.95-7.19-96.1,50.95-10.37,98.64-41.13,151.2-36.13,12.7-5.84,43.53-9.24,50.17,4.97-37.8,53.94-1.39,41.95,4.14,83.95-32,31.92,12.5,95.63-56.5,84.49Z"/>
  </g>
  <g id="Layer_69_Image" data-name="Layer 69 Image">
    <path class="cls-1" d="M1980.31,2388.03c-45.03,16.02-41.72-41.07-28.05-67.02,6.07-8.78,14.24-16.77,5.07-27.02-12.23-15.57-29.4-32.52-11.78-51.3,13.29-22.77,32.02-30.61,54.83-27.5,27.01,3.68,57.95,20.96,66.95,21.97,16.27,1.84,34.97-12.22,52.57-3.1,17.24,8.93-14.9,48.87,3.79,95.32-5.47,155.71,49.59,95.71-143.37,58.65Z"/>
  </g>
  <g id="Layer_70_Image" data-name="Layer 70 Image">
    <path class="cls-1" d="M2120.72,2287.41c2.05-33.46,26.24-58.51,24.68-91.04,34.13-29.15,75.2-68.45,121.11-44.79,32.2,20.19,48.92-41.31,62.69-12.05,13.39,29.27-6.41,43.47,7.35,84.01-9.73,31.45,9.82,92.76-41.25,86.73-37.7,5.1-73.53-9.16-111.08,1.23-21.54-14.65-63.8,15.69-63.49-24.09Z"/>
  </g>
  <g id="Layer_71_Image" data-name="Layer 71 Image">
    <path class="cls-1" d="M2312.92,2465.67c-41.81-11.59-108.69,2.83-146.23-14.43-12.51-5.75-25.59-11.33-28.28-27.49-1.22-7.3-10.86-15.78-11.38-25.43-2.12-39.13-18.65-97.4,36.82-87.64,22.57,3.97,42.67,2.36,64.89-.78,19.84-.59,38.16,11.31,58.37,5.39,54.26-14.04,42.93,15.09,43.84,54.83-4.82,28.34,23.24,88.49-18.03,95.54Z"/>
  </g>
  <g id="Layer_72_Image" data-name="Layer 72 Image">
    <path class="cls-1" d="M1274.19,2581.45c-66.18,6.87-144.29-12.7-204.81,8.54-4.94,17.76-11.75,53.05,15.64,54.25,31.6,6.08,185.68-15.4,186.88,10.55-19.63,45.45-42.2,5.94-85.73,22.16-17.54,6.29-34.18-9.83-50.05.39-13.98,6.25-27.17-8.76-42.2-2.21-44.5,2.5-88.83-3.23-132.93,3.37-46.87,1.88-95.27-17.41-141.01-2.93-12.99,7.75-24.21-12-36.67-.36-25.93,14.7-57.09-12.67-85.31-3.25-108.17,8.76-162.42,11.37-39.12-71.58,19.16-1.5,28.65-30.53,46.66-25.22,7.12,3.85,12.85-1.02,18.12-5.33,26.49-19.1,68.57-31.61,78.81-64.85-.63-12.07,11.93-18.31,19.18-25.97,55.97-1.01,113.66-5.22,167.7-23.65,118.66-43.72,22.82,66.1,142.32,67.07,27.07,9.2,47.64-5.69,71.96-13.33,35.74-6.37,7.08-62.38,38.86-76.82,11.96,6.35,4.44,28.99,8.51,41.03-2.11,37.76,107.6,110.07,23.18,108.13Z"/>
  </g>
  <g id="Layer_73_Image" data-name="Layer 73 Image">
    <path class="cls-1" d="M1357.56,2643c23.71-5.31,74.66,15.63,77.02-19.99-.53-13.25,7.19-34.17-8.9-40.31-32.82-3.59-66.88-.37-100.05-1.45-16.29-4.35-12.14-27.16-25.17-36.75-50.35-40.56-45.65-99.17-55.88-156.08-14.19-21-2.87-43.31-3.35-66.1-.82-48.49,55.25-34.3,86.8-27.29,22.96,4.07,43.96,15.85,61.15,31.54,36.62,30.19,86.47,37.02,127.42,60.24,38.1,14.89,94.76,6.99,123.99,32.99,57.73,105.26-38.52,142.2,35.98,242.6,4.62,40.89-114.57-5.98-141.08,13.98-14.76,8.64-28.06-6.93-43.54-5.22-20.56.84-40.05,14.7-60.32,2.83-24.7-7.94-49.97,7.99-74.11,4.7-12.49-2.73-25.55-9.49-38.39-5.67-19.52,4.55-70.98-2.25-33.63-26.72,22.84-5.91,48.65-1.66,72.06-3.3Z"/>
  </g>
  <g id="Layer_74_Image" data-name="Layer 74 Image">
    <path class="cls-1" d="M1704.87,2396.61c71.87,2.4,143.5,2.76,215.48,1.04,34.04-3.24,134.42-16.71,131.22,32.96-9.52,16.22-24.32,28.87-32.01,46.28-16.64,35.52,18.8,72.42,1.33,107.54-36.58,36.44-17.35,89.02-39.9,90.11-23.77,3.3-47.95,3.99-70.79,3.38-20.93-5.11-47.34-10.16-67.54-.93-13.97,2.08-27.65-6.06-41.66-7.13-10.26-.41-18.94,9.7-29.69,6.72-25.27-7.78-47.71,1.46-72.83-1.65-21.02,5.29-18.44-28.4-31.07-39.08-20.45-26.16-23.21-57.53-10.51-87.72,40.81-89.28-72.89-146.24,47.96-151.53Z"/>
  </g>
  <g id="Layer_75_Image" data-name="Layer 75 Image">
    <path class="cls-1" d="M1994.26,2650.02c14.86-74.5,44.24-40.1,24.65-150.01-5.49-30.82,26.65-50.39,35.97-77.01,9.4-26.84,64.82,15.32,91.78,18.88,53.87,30.19,113.93,17.01,171.64,27.27,30.32,3.99,5.58,38.65,15.27,55.66,4.28,32.31,5.65,67-5.59,98.42,3.84,35.86,24.06,51.1-28.13,49.86-40.57-1.05-82.66,13.72-123.65,1.13-23.5,3.98-47,9.42-69.43-2.58-20.21-7.15-38.62,18.53-59.38,6.17-21.52-5.33-57.88,11.04-53.13-27.78ZM2259.17,2644.22c50.54,11.86,60-43.18,28.82-56.05-22.35,4.6-68.58-13.44-72.94,18.59-6.58,32.03,16,41.95,44.13,37.46Z"/>
  </g>
</svg>