<?xml version="1.0" encoding="UTF-8"?>
<svg id="joining_paths" data-name="joining paths" xmlns="http://www.w3.org/2000/svg" viewBox="0 0 2500 2849">
  <defs>
    <style>
      .cls-1 {
        fill: none;
        stroke: #221f20;
        stroke-linecap: round;
        stroke-miterlimit: 10;
      }
    </style>
  </defs>
  <path class="cls-1" d="M799.15,350.21c-111.51-85.51-347.17-51.46-394.34,0"/>
  <path class="cls-1" d="M553.27,571.35c111.93,41.46,105.79,238.74,91.49,283.05"/>
  <path class="cls-1" d="M822.03,679.99c52.89,11.44,142.5,109.61,143.93,143.92"/>
  <path class="cls-1" d="M553.27,571.35c113.56-56.24,116.95-205.86,245.88-221.14"/>
  <path class="cls-1" d="M799.15,350.21c77.2-52.15,233.57-34.3,313.07,0"/>
  <path class="cls-1" d="M1112.23,350.21c64.33-59.06,217.29-72.6,280.19-20.43"/>
  <path class="cls-1" d="M799.15,350.21c112.76,158.12,173.75,107.83,238.74,231.14"/>
  <path class="cls-1" d="M799.15,350.21c-15.99,123.31,83.4,229.3,22.87,329.78"/>
  <path class="cls-1" d="M404.81,350.21c-124.24,5.97-189.28,313.05-152.11,531.77"/>
  <path class="cls-1" d="M553.27,571.35c-118.65-8.58-296.28,203.42-300.57,310.63"/>
  <path class="cls-1" d="M252.7,881.98c89.99-57.6,103.23,18.61,214.8-33.3"/>
  <path class="cls-1" d="M467.5,848.68c67.2,43.97,87.2-53.15,177.27,5.72"/>
  <path class="cls-1" d="M644.76,854.4c99.34-39.87,110.08-164.4,177.27-174.41"/>
  <path class="cls-1" d="M644.76,854.4c115.53,95.78,7.7,149.35,218.72,191.56"/>
  <path class="cls-1" d="M863.48,1045.96c66.47-66.65.97-160.55,102.47-222.05"/>
  <path class="cls-1" d="M965.96,823.91c109.02-56.71,95.6-158.68,71.93-242.56"/>
  <path class="cls-1" d="M404.81,350.21c55.34,134.73,141.31,173.96,148.46,221.14"/>
  <path class="cls-1" d="M1112.23,350.21c-37.68,59.06-77.38,181.28-74.34,231.14"/>
  <path class="cls-1" d="M1037.89,581.35c53.66-25.63,188.85-1.1,214.43,21.69"/>
  <path class="cls-1" d="M1037.89,581.35c-56.17-13.36-175.18,48.82-215.86,98.64"/>
  <path class="cls-1" d="M553.27,571.35c110.17-19.77,257.13,79.39,268.76,108.65"/>
  <path class="cls-1" d="M553.27,571.35c-104.58,90.34-148.46,173.36-85.77,277.33"/>
  <path class="cls-1" d="M1392.42,329.78c-95.38,47.15-61.49,177.75-140.1,273.26"/>
  <path class="cls-1" d="M1112.23,350.21c84.3,79.39,133.21,184.01,140.1,252.83"/>
  <path class="cls-1" d="M1392.42,329.78c91.79-52.26,152.76-6.01,238.8-16.34"/>
  <path class="cls-1" d="M1392.42,329.78c40.87,30.59,36.76,149.36,153.86,263.33"/>
  <path class="cls-1" d="M1631.22,313.43c-48.08,72.55-11.23,200.87-84.94,279.68"/>
  <path class="cls-1" d="M1631.22,313.43c125.15,67.47,87.09,175.9,189.92,245.22"/>
  <path class="cls-1" d="M1631.22,313.43c52.49-79.23,158.41-3.13,251.98,0"/>
  <path class="cls-1" d="M1883.21,313.43c47.61-102.94,213.46,16.65,308.17,0"/>
  <path class="cls-1" d="M1883.21,313.43c-55.27,78.68,4.52,169.09-62.06,245.22"/>
  <path class="cls-1" d="M1883.21,313.43c42.74,99.22,233.06,185.06,111.84,351.8"/>
  <path class="cls-1" d="M2217.02,651.61c-132.23-76.32-47.51-141.83-333.82-338.18"/>
  <path class="cls-1" d="M2191.38,313.43c81.47,128.59-22.53,162.47,25.64,338.18"/>
  <path class="cls-1" d="M2217.02,651.61c-90.99,50.17-115.84,0-221.98,13.62"/>
  <path class="cls-1" d="M2217.02,651.61c30.86,121.89-73.06,130.62-42.47,261.24"/>
  <path class="cls-1" d="M1995.04,665.23c-21.11-54.55-111.34-115.69-173.9-106.58"/>
  <path class="cls-1" d="M1995.04,665.23c-30.5,47.67-130.88,136.13-312.31,134.53"/>
  <path class="cls-1" d="M1995.04,665.23c15.34,134.6,110.99,134.53,179.51,247.62"/>
  <path class="cls-1" d="M1995.04,665.23c-37.86,120.97-105.36,236.17-145.3,269.21"/>
  <path class="cls-1" d="M1821.15,558.65c9.81,94.6-56.21,206.78-138.41,241.11"/>
  <path class="cls-1" d="M1821.15,558.65c-114.17-26.04-179.07-14.7-274.87,34.46"/>
  <path class="cls-1" d="M1546.28,593.11c58.53,47.4,126.29,118.56,136.46,206.65"/>
  <path class="cls-1" d="M1546.28,593.11c-96.48-29.68-161.87,36.64-293.96,9.93"/>
  <path class="cls-1" d="M1252.32,603.04c70.05,85.76,23.82,171.59,110,217.9"/>
  <path class="cls-1" d="M1546.28,593.11c-41.42,87.22-128.9,199.03-183.96,227.83"/>
  <path class="cls-1" d="M1252.32,603.04c-88.5,40.02,10.48,231.81-286.37,220.87"/>
  <path class="cls-1" d="M965.96,823.91c90.73,141.03,167.89,58.07,257.67,152.89"/>
  <path class="cls-1" d="M1362.32,820.94c-94.87,47.44-120.06,84.71-138.69,155.86"/>
  <path class="cls-1" d="M1362.32,820.94c98.26,48.28,92.28,177.16,174.16,226.29"/>
  <path class="cls-1" d="M1362.32,820.94c101.65,40.66,264.51,29.65,320.41-21.18"/>
  <path class="cls-1" d="M1682.74,799.76c29.65,60.99,84.97,116.89,167,134.68"/>
  <path class="cls-1" d="M1682.74,799.76c-9.68,84.23-146.26,145.82-146.26,247.47"/>
  <path class="cls-1" d="M1536.48,1047.23c156.19-6.78,180.41-83.14,313.26-112.78"/>
  <path class="cls-1" d="M1849.74,934.44c137.37-27.11,145.3-152.21,321.29-23.89"/>
  <path class="cls-1" d="M2174.55,912.86c-75.63,52.08-15.77,146.95-116.57,176.6"/>
  <path class="cls-1" d="M2057.98,1089.45c-138.07-38.96-136.84,51.67-244.8,43.2"/>
  <path class="cls-1" d="M1813.18,1132.65c-46.94-85.43,25.71-141.82,36.56-198.21"/>
  <path class="cls-1" d="M1813.18,1132.65c-109.27,27.95-218.98,39.65-276.71-85.43"/>
  <path class="cls-1" d="M2174.55,912.86c163.81,99.79,105.5,379.75,55.39,440.03"/>
  <path class="cls-1" d="M2229.93,1352.89c-16.94-164.33-78.78-224.47-171.95-263.43"/>
  <path class="cls-1" d="M2229.93,1352.89c-151.62-47.44-185.22,64.94-326.12,12.71"/>
  <path class="cls-1" d="M2057.98,1089.45c-74.54,87.25-8.47,144-154.16,276.14"/>
  <path class="cls-1" d="M1903.82,1365.6c-96.2-72.99-18.35-121.69-90.64-232.94"/>
  <path class="cls-1" d="M1813.18,1132.65c-115.72,94.87-215.37,45.74-284.61,138.07"/>
  <path class="cls-1" d="M1536.48,1047.23c-32.7,84.71-27.39,141.33-7.91,223.5"/>
  <path class="cls-1" d="M1536.48,1047.23c-123.48-57.18-204.68-73.36-312.85-70.43"/>
  <path class="cls-1" d="M1223.63,976.8c120.85,66.11,17.36,128.53,69.35,235.36"/>
  <path class="cls-1" d="M1223.63,976.8c-175.06,107.93-42.86,212.25-119.61,298.61"/>
  <path class="cls-1" d="M1223.63,976.8c-138.09-3.23-215.25,81.72-360.15,69.16"/>
  <path class="cls-1" d="M863.48,1045.96c110.55,72.58,211.49,52.86,240.54,229.45"/>
  <path class="cls-1" d="M863.48,1045.96c-70.13,69.99-79.16,137.34-71.86,185.45"/>
  <path class="cls-1" d="M791.62,1231.41c-253.44-205.04-568.53,81.39-538.93-349.43"/>
  <path class="cls-1" d="M791.62,1231.41c-144.32-1.76-390.72,23.76-428.56,132.88"/>
  <path class="cls-1" d="M252.7,881.98c-47.41,288.13-4.91,403.11,110.37,482.31"/>
  <path class="cls-1" d="M791.62,1231.41c7.04,124.08-11.44,160.16-47.52,184.8"/>
  <path class="cls-1" d="M744.1,1416.21c-166.76-39.68-276.61-118.4-381.04-51.92"/>
  <path class="cls-1" d="M363.07,1364.29c-81.22,121,48.41,207.27-7.14,306.99"/>
  <path class="cls-1" d="M744.1,1416.21c149.4,69.08,82.4,160.31,111.76,278.96"/>
  <path class="cls-1" d="M355.92,1671.27c84.95-46.97,304.51,46.44,499.94,23.89"/>
  <path class="cls-1" d="M1104.02,1275.41c-13.31,171.45-60.59,355.14-248.16,419.76"/>
  <path class="cls-1" d="M1104.02,1275.41c98.98,75.79,34.01,196.55,141.31,246.89"/>
  <path class="cls-1" d="M1245.33,1522.3c49.13-96.56,93.81-228.73,47.65-310.15"/>
  <path class="cls-1" d="M1292.98,1212.15c-75,58.57-118.3,13.05-188.95,63.25"/>
  <path class="cls-1" d="M791.62,1231.41c117.73-25.77,174.33,36.6,312.4,44"/>
  <path class="cls-1" d="M1292.98,1212.15c93.86-22.14,125.51,77.87,235.6,58.57,180.22-31.6,305.78,116.94,375.25,94.87"/>
  <path class="cls-1" d="M1528.57,1270.72c-55.5,76.49-69.61,137.37-44.36,201.23"/>
  <path class="cls-1" d="M1484.21,1471.96c-151.03-47.46-127.98,40.74-238.88,50.34"/>
  <path class="cls-1" d="M1484.21,1471.96c92.82-41.58,182.21-12.55,227.22,28.96"/>
  <path class="cls-1" d="M1711.42,1500.92c28.22-92.07,155.34-36.74,192.39-135.32"/>
  <path class="cls-1" d="M1903.82,1365.6c-10.47,104.13,60.07,211.8,26.65,267.49"/>
  <path class="cls-1" d="M2229.93,1352.89c-40.3,218.45-218.45,148.03-299.46,280.2"/>
  <path class="cls-1" d="M2229.93,1352.89c50.11,227.12,50.11,336.31,10.17,523.75"/>
  <path class="cls-1" d="M2240.11,1876.64c-85.39-227.22-135.88-233.16-309.64-243.55"/>
  <path class="cls-1" d="M2240.11,1876.64c-113.06-70.33-121.73-7.73-218.31-22.28"/>
  <path class="cls-1" d="M2021.8,1854.36c31.93-90.59-1.49-177.47-91.33-221.28"/>
  <path class="cls-1" d="M2240.11,1876.64c10.4,124-104.7,202.71-181.18,208.65"/>
  <path class="cls-1" d="M2240.11,1876.64c56.43,150.73,47.47,276.97,7.77,356.42"/>
  <path class="cls-1" d="M2058.93,2085.29c40.1-109.15,12.62-187.86-37.13-230.93"/>
  <path class="cls-1" d="M2021.8,1854.36c-110.36,22.28-91.33,132.69-149.99,211.62"/>
  <path class="cls-1" d="M2021.8,1854.36c-79.45-63.3-109.9-64.6-169.3-62.37"/>
  <path class="cls-1" d="M1852.51,1791.99c95.79-57.18,105.44-91.33,77.97-158.9"/>
  <path class="cls-1" d="M1930.47,1633.09c-87.62-90.59-160.39-26.73-219.05-132.17"/>
  <path class="cls-1" d="M1930.47,1633.09c-106.18,17.08-109.52,96.53-241.32,68.31"/>
  <path class="cls-1" d="M1528.57,1270.72c68.87,20.79,153.15,85.4,182.85,230.19"/>
  <path class="cls-1" d="M1711.42,1500.92c-50.49,69.06-58.66,115.84-22.28,200.48"/>
  <path class="cls-1" d="M1689.15,1701.4c-149.25-74.25-96.53-178.21-204.94-229.44"/>
  <path class="cls-1" d="M1484.21,1471.96c5.2,112.12-1.49,151.48-17.08,193.06"/>
  <path class="cls-1" d="M1467.13,1665.02c-62.79-153.44-128.95-96.53-221.8-142.71"/>
  <path class="cls-1" d="M1245.33,1522.3c-172.79,32.08-203.25,168.11-389.46,172.86"/>
  <path class="cls-1" d="M1467.13,1665.02c-92.07-12.62-173.01,20.79-201.23,64.6"/>
  <path class="cls-1" d="M1245.33,1522.3c-42.1,89.99-35.86,144.2,20.58,207.32"/>
  <path class="cls-1" d="M1467.13,1665.02c90.59,55.69,165.59,56.43,222.02,36.38"/>
  <path class="cls-1" d="M1265.9,1729.62c-232.01-58.34-270.6,35.8-410.04-34.45"/>
  <path class="cls-1" d="M855.86,1695.16c81.84,99.79,211.04,103.51,260.79,214.89"/>
  <path class="cls-1" d="M1116.65,1910.05c18.65-161.3,121.03-83.91,149.25-180.44"/>
  <path class="cls-1" d="M855.86,1695.16c-118.65,165.14-249.97,107.44-357,298.05"/>
  <path class="cls-1" d="M498.86,1993.22c-94.58-41.5-116.73,17.24-197.08-.62"/>
  <path class="cls-1" d="M301.79,1992.6c73.51-115.84-37.75-236.57,54.13-321.33"/>
  <path class="cls-1" d="M355.92,1671.27c230.78,98.3,118.24,210.84,142.94,321.94"/>
  <path class="cls-1" d="M498.86,1993.22c110.6,81.93,131.42-.62,262.84,46.92"/>
  <path class="cls-1" d="M761.7,2040.14c-17.6-138.08,135.56-207.89,94.16-344.97"/>
  <path class="cls-1" d="M761.7,2040.14c141.18-37.27,225.88-14.68,259.76,35.01"/>
  <path class="cls-1" d="M1021.47,2075.15c91.48-79.06,35.65-117.86,95.19-165.09"/>
  <path class="cls-1" d="M1265.9,1729.62c9.68,86.9-41.3,261.95,0,310.52"/>
  <path class="cls-1" d="M1265.9,1729.62c79.7,60.92,154.24,124.89,168.93,180.44"/>
  <path class="cls-1" d="M1659.58,1936.23c-15.81-66.64-67.76-169.57-192.45-271.21"/>
  <path class="cls-1" d="M1116.65,1910.05c69.71,36.62,88.18,113.42,149.25,130.08"/>
  <path class="cls-1" d="M1265.9,2040.14c81.4-21.46,136.17-70.99,168.93-130.08,24.4-44.03,7.91-185.18,32.3-245.04"/>
  <path class="cls-1" d="M1265.9,2040.14c-204.34,109.55-74.62,187.48-119.35,301.27"/>
  <path class="cls-1" d="M1146.55,2341.41c-32.58-98.42-20.05-216.56-125.08-266.26"/>
  <path class="cls-1" d="M1146.55,2341.41c86.12-52.09,28.13-160.09,188.05-150.63"/>
  <path class="cls-1" d="M1334.6,2190.77c4.24-75.32-32.35-121.55-68.69-150.63"/>
  <path class="cls-1" d="M1021.47,2075.15c-51.11,19.76-78.21,81.6-69.74,123.95"/>
  <path class="cls-1" d="M951.73,2199.1c-85.26-33.04-130.45-41.51-190.02-158.96"/>
  <path class="cls-1" d="M761.7,2040.14c-31.91,70.02-336.46,195.11-405.78,209.51"/>
  <path class="cls-1" d="M355.92,2249.65c116.19-108.42,85.83-158.97,142.94-256.43"/>
  <path class="cls-1" d="M301.79,1992.6c-45.59,127.02-32.41,239.26,54.13,257.05"/>
  <path class="cls-1" d="M355.92,2249.65c28.94,65.22,27.11,154.44,0,202.72"/>
  <path class="cls-1" d="M355.92,2452.37c95.55,11.65,202.89-71.23,326.15-29.84"/>
  <path class="cls-1" d="M682.08,2422.53c50.58-163.33,80.22-236.86,79.63-382.4"/>
  <path class="cls-1" d="M951.73,2199.1c-114.1,103.14-134.82,0-269.65,223.43"/>
  <path class="cls-1" d="M951.73,2199.1c21.22,50.48,27.95,141.46,0,180.42"/>
  <path class="cls-1" d="M951.73,2379.52c-85.55-28.8-163.56,54.5-269.65,43.01"/>
  <path class="cls-1" d="M951.73,2379.52c116.05,11.86,107.58-45.74,194.82-38.12"/>
  <path class="cls-1" d="M951.73,2199.1c132.28-13.27,132.28,78.21,194.82,142.31"/>
  <path class="cls-1" d="M1146.55,2341.41c9.39,92.6-97.93,229.78-170.56,250.76"/>
  <path class="cls-1" d="M975.99,2592.16c-60.52-98.45-54.18-160.61-24.27-212.64"/>
  <path class="cls-1" d="M975.99,2592.16c-136.37-17.75-290.07-43.93-293.92-169.63"/>
  <path class="cls-1" d="M975.99,2592.16c223.92,14.37,409.56-7.77,491.14-84.82"/>
  <path class="cls-1" d="M1467.13,2507.35c-173.48-40.56-193.88-196.16-320.58-165.94"/>
  <path class="cls-1" d="M1467.13,2507.35c-116.76-126.21-173.48-211.97-132.53-316.58"/>
  <path class="cls-1" d="M1265.9,2040.14c127.14,42.92,262.67,10.16,360.93,84.71"/>
  <path class="cls-1" d="M1626.83,2124.84c-108.42-138.92-167.15-99.79-192-214.79"/>
  <path class="cls-1" d="M1659.58,1936.23c-64.38-54.21-128.75-51.35-224.75-26.18"/>
  <path class="cls-1" d="M1659.58,1936.23c46.31-124.24-4.12-146.65,29.57-234.83"/>
  <path class="cls-1" d="M1689.15,1701.4c48.36,72.19,122.49,99.95,163.36,90.59"/>
  <path class="cls-1" d="M1852.51,1791.99c-136.45,52.84-121.77,136.33-192.92,144.24"/>
  <path class="cls-1" d="M1852.51,1791.99c-39.32,161.18,6.98,148.17,19.31,274"/>
  <path class="cls-1" d="M2058.93,2085.29c-98.03,0-93.56-62.1-187.12-19.31"/>
  <path class="cls-1" d="M1871.81,2065.98c-77.83-82.32-179.48-45.59-212.23-129.75"/>
  <path class="cls-1" d="M1659.58,1936.23c-53.08,84.71,16.94,120.85-32.75,188.61"/>
  <path class="cls-1" d="M2247.88,2233.05c-41.66,63.46,8.2,74.75-7.11,160.59"/>
  <path class="cls-1" d="M2240.77,2393.64c-40.2,80.19,7.11,106.16-65.04,179.58"/>
  <path class="cls-1" d="M2175.72,2573.22c-168.28-83.58-167.15,10.16-343.37-23.72"/>
  <path class="cls-1" d="M1832.36,2549.5c-189.15,28.24-182.61-31.62-365.23-42.15"/>
  <path class="cls-1" d="M1467.13,2507.35c30.95-167.92,60.06-120.48,111.01-224.39"/>
  <path class="cls-1" d="M1626.83,2124.84c13.55,68.89-56.38,73.4-48.69,158.12"/>
  <path class="cls-1" d="M1578.14,2282.96c-173.8,5.65-148.39-84.99-243.54-92.19"/>
  <path class="cls-1" d="M1334.6,2190.77c125.08-64.8,187.2-25.27,292.23-65.93"/>
  <path class="cls-1" d="M1578.14,2282.96c145.82,75.64,151.2,16.93,281.35,24.85"/>
  <path class="cls-1" d="M1859.49,2307.81c-64.38,132.14,18.07,159.25-27.13,241.69"/>
  <path class="cls-1" d="M1859.49,2307.81c77.67,24.01,129.88-39.53,190.5,14.68"/>
  <path class="cls-1" d="M2049.99,2322.49c-75.1,143.46-169.1,147.95-217.64,227.01"/>
  <path class="cls-1" d="M2049.99,2322.49c61.35,75.67,50.06,184.09,125.73,250.73"/>
  <path class="cls-1" d="M2049.99,2322.49c80.96,71.15,103.41,23.09,190.77,71.15"/>
  <path class="cls-1" d="M2049.99,2322.49c57.97-56.47,122.09-95.29,197.89-89.43"/>
  <path class="cls-1" d="M2049.99,2322.49c39.9-90.02-39.16-163.32,8.94-237.2"/>
  <path class="cls-1" d="M1859.49,2307.81c49.69-107.29,38.68-193.28,12.32-241.82"/>
  <path class="cls-1" d="M1859.49,2307.81c-88.66-56.6-151.34-160.38-232.66-182.96"/>
  <path class="cls-1" d="M1626.83,2124.84c84.59-39.55,194.12,42.92,244.98-58.86"/>
  <path class="cls-1" d="M1832.36,2549.5c-83.04-200.44-201.58-137.79-254.22-266.54"/>
  <path class="cls-1" d="M355.92,2249.65c153.33-6.15,268.88,19.94,326.15,172.88"/>
  <path class="cls-1" d="M855.86,1695.16c-66.33-101.85-297.05-115.06-492.8-330.88"/>
  <path class="cls-1" d="M855.86,1695.16c151.98-149.35,235.51-311.65-64.24-463.76"/>
  <path class="cls-1" d="M1116.65,1910.05c-146.4,0-277.8,26.18-354.95,130.08"/>
  <path class="cls-1" d="M863.48,1045.96c-263.16,52.86-599.9,213.93-610.79-163.98"/>
  <path class="cls-1" d="M644.76,854.4c60.18,148.04-294.88,461.96-392.06,27.58"/>
  <path class="cls-1" d="M1021.47,2075.15c113.84,7.34,172.99-49.13,244.44-35.01"/>
  <path class="cls-1" d="M1871.81,2065.98c67.72,16.5,110.24,197.77,178.18,256.5"/>
  <path class="cls-1" d="M2247.88,2233.05c-50.7-91.27-116.92-56.26-188.95-147.76"/>
  <path class="cls-1" d="M2057.98,1089.45c-7.87-204.71-118.45-118.87-208.24-155.01"/>
  <path class="cls-1" d="M1362.32,820.94c-181.55-53.74-289.78,74.16-396.37,2.97"/>
  <path class="cls-1" d="M965.96,823.91c-146.37,41.42-124.18,154.88-321.19,30.49"/>
  <path class="cls-1" d="M1536.48,1047.23c-201.03,56.63-140.05,113.46-243.5,164.93"/>
  <path class="cls-1" d="M1292.98,1212.15c95.62,50.95,7.45,153.44,191.23,259.8"/>
</svg>